<svg width="16" height="22" viewBox="0 0 16 22" fill="none" xmlns="http://www.w3.org/2000/svg">
<path d="M10.44 18.05L11.96 19.57L15 16.53M7.99004 20.81C6.17004 20.81 4.36004 20.35 2.98004 19.43C0.560039 17.81 0.560039 15.17 2.98004 13.56C5.73004 11.72 10.24 11.72 12.99 13.56M8.16004 9.87C8.06004 9.86 7.94004 9.86 7.83004 9.87C6.68224 9.83103 5.59468 9.34684 4.79767 8.51996C4.00066 7.69308 3.55678 6.58845 3.56004 5.44C3.55846 4.85733 3.67189 4.28008 3.89384 3.74133C4.11579 3.20258 4.44188 2.71294 4.85343 2.30046C5.26497 1.88799 5.75388 1.56079 6.29213 1.33763C6.83037 1.11447 7.40737 0.999735 7.99004 1C10.44 1 12.43 2.99 12.43 5.44C12.43 7.84 10.53 9.79 8.16004 9.87V9.87Z" stroke="white" stroke-width="1.5" stroke-linecap="round" stroke-linejoin="round"/>
</svg>
